<mxfile host="app.diagrams.net" modified="2023-11-25T16:13:26.101Z" agent="Mozilla/5.0 (Macintosh; Intel Mac OS X 10_15_7) AppleWebKit/537.36 (KHTML, like Gecko) Chrome/117.0.0.0 Safari/537.36" etag="Ri3UDI1Iz2JMrgy59L8t" version="22.1.4" type="device">
  <diagram name="Sayfa -1" id="Qw63XjKKH6EkeKbqogJP">
    <mxGraphModel dx="2448" dy="1398" grid="1" gridSize="10" guides="1" tooltips="1" connect="1" arrows="1" fold="1" page="1" pageScale="1" pageWidth="583" pageHeight="413" math="0" shadow="0">
      <root>
        <mxCell id="0" />
        <mxCell id="1" parent="0" />
        <mxCell id="5j7AbYeZaHDb51erD1fv-13" value="&lt;font style=&quot;font-size: 25px;&quot;&gt;&amp;nbsp; &amp;nbsp; &amp;nbsp; BookService&lt;/font&gt;" style="rounded=1;whiteSpace=wrap;html=1;" vertex="1" parent="1">
          <mxGeometry x="408" y="200" width="240" height="110" as="geometry" />
        </mxCell>
        <mxCell id="5j7AbYeZaHDb51erD1fv-1" value="Actor" style="shape=umlActor;verticalLabelPosition=bottom;verticalAlign=top;outlineConnect=0;align=center;fontSize=15;html=1;" vertex="1" parent="1">
          <mxGeometry x="113" y="585" width="60" height="110" as="geometry" />
        </mxCell>
        <mxCell id="5j7AbYeZaHDb51erD1fv-10" value="&lt;font style=&quot;font-size: 24px;&quot;&gt;BookAPI&lt;/font&gt;" style="rounded=0;whiteSpace=wrap;html=1;" vertex="1" parent="1">
          <mxGeometry x="348" y="250" width="120" height="60" as="geometry" />
        </mxCell>
        <mxCell id="5j7AbYeZaHDb51erD1fv-14" value="&lt;font style=&quot;font-size: 19px;&quot;&gt;EurekaClient&lt;/font&gt;" style="rounded=0;whiteSpace=wrap;html=1;" vertex="1" parent="1">
          <mxGeometry x="568" y="290" width="140" height="70" as="geometry" />
        </mxCell>
        <mxCell id="5j7AbYeZaHDb51erD1fv-18" value="&lt;font style=&quot;font-size: 23px;&quot;&gt;&amp;nbsp; &amp;nbsp; &amp;nbsp; &amp;nbsp; LibraryService&lt;/font&gt;" style="rounded=1;whiteSpace=wrap;html=1;align=center;" vertex="1" parent="1">
          <mxGeometry x="408" y="880" width="240" height="110" as="geometry" />
        </mxCell>
        <mxCell id="5j7AbYeZaHDb51erD1fv-19" value="&lt;font style=&quot;font-size: 19px;&quot;&gt;EurekaClient&lt;/font&gt;" style="rounded=0;whiteSpace=wrap;html=1;" vertex="1" parent="1">
          <mxGeometry x="568" y="970" width="140" height="70" as="geometry" />
        </mxCell>
        <mxCell id="5j7AbYeZaHDb51erD1fv-20" value="&lt;font style=&quot;font-size: 24px;&quot;&gt;LibraryAPI&lt;/font&gt;" style="rounded=0;whiteSpace=wrap;html=1;" vertex="1" parent="1">
          <mxGeometry x="348" y="930" width="120" height="60" as="geometry" />
        </mxCell>
        <mxCell id="5j7AbYeZaHDb51erD1fv-21" value="" style="endArrow=classic;html=1;rounded=0;" edge="1" parent="1" source="5j7AbYeZaHDb51erD1fv-1" target="5j7AbYeZaHDb51erD1fv-20">
          <mxGeometry width="50" height="50" relative="1" as="geometry">
            <mxPoint x="270" y="640" as="sourcePoint" />
            <mxPoint x="348" y="959.87" as="targetPoint" />
            <Array as="points">
              <mxPoint x="200" y="640" />
              <mxPoint x="200" y="960" />
            </Array>
          </mxGeometry>
        </mxCell>
        <mxCell id="5j7AbYeZaHDb51erD1fv-22" value="&lt;font style=&quot;font-size: 46px;&quot;&gt;V2 Book.Online&lt;/font&gt;" style="text;html=1;align=center;verticalAlign=middle;resizable=0;points=[];autosize=1;strokeColor=none;fillColor=none;" vertex="1" parent="1">
          <mxGeometry x="353" y="60" width="340" height="70" as="geometry" />
        </mxCell>
        <mxCell id="5j7AbYeZaHDb51erD1fv-24" value="&lt;font style=&quot;font-size: 23px;&quot;&gt;LibraryDB&lt;/font&gt;" style="shape=cylinder3;whiteSpace=wrap;html=1;boundedLbl=1;backgroundOutline=1;size=15;" vertex="1" parent="1">
          <mxGeometry x="770" y="1040" width="135" height="140" as="geometry" />
        </mxCell>
        <mxCell id="5j7AbYeZaHDb51erD1fv-25" value="" style="endArrow=none;html=1;rounded=0;exitX=1;exitY=0.5;exitDx=0;exitDy=0;" edge="1" parent="1">
          <mxGeometry width="50" height="50" relative="1" as="geometry">
            <mxPoint x="648" y="920" as="sourcePoint" />
            <mxPoint x="920" y="920" as="targetPoint" />
          </mxGeometry>
        </mxCell>
        <mxCell id="5j7AbYeZaHDb51erD1fv-26" value="" style="endArrow=none;html=1;rounded=0;" edge="1" parent="1">
          <mxGeometry width="50" height="50" relative="1" as="geometry">
            <mxPoint x="920" y="320" as="sourcePoint" />
            <mxPoint x="920" y="920" as="targetPoint" />
          </mxGeometry>
        </mxCell>
        <mxCell id="5j7AbYeZaHDb51erD1fv-27" value="" style="endArrow=classic;html=1;rounded=0;entryX=1.004;entryY=0.415;entryDx=0;entryDy=0;entryPerimeter=0;" edge="1" parent="1" target="5j7AbYeZaHDb51erD1fv-14">
          <mxGeometry width="50" height="50" relative="1" as="geometry">
            <mxPoint x="920" y="320" as="sourcePoint" />
            <mxPoint x="710" y="320" as="targetPoint" />
          </mxGeometry>
        </mxCell>
        <mxCell id="5j7AbYeZaHDb51erD1fv-29" value="&lt;font style=&quot;font-size: 28px;&quot;&gt;FeignClient&lt;br&gt;http rest call&lt;/font&gt;" style="text;html=1;align=center;verticalAlign=middle;resizable=0;points=[];autosize=1;strokeColor=none;fillColor=none;" vertex="1" parent="1">
          <mxGeometry x="960" y="580" width="170" height="80" as="geometry" />
        </mxCell>
        <mxCell id="5j7AbYeZaHDb51erD1fv-30" value="&lt;font style=&quot;font-size: 23px;&quot;&gt;BookDB&lt;/font&gt;" style="shape=cylinder3;whiteSpace=wrap;html=1;boundedLbl=1;backgroundOutline=1;size=15;" vertex="1" parent="1">
          <mxGeometry x="775" y="60" width="135" height="140" as="geometry" />
        </mxCell>
        <mxCell id="5j7AbYeZaHDb51erD1fv-34" value="&lt;font style=&quot;font-size: 30px;&quot;&gt;EurekaServer&lt;/font&gt;" style="rounded=0;whiteSpace=wrap;html=1;" vertex="1" parent="1">
          <mxGeometry x="400" y="530" width="290" height="140" as="geometry" />
        </mxCell>
        <mxCell id="5j7AbYeZaHDb51erD1fv-35" value="" style="endArrow=classic;html=1;rounded=0;exitX=0.139;exitY=1.019;exitDx=0;exitDy=0;exitPerimeter=0;entryX=0.135;entryY=-0.001;entryDx=0;entryDy=0;entryPerimeter=0;" edge="1" parent="1" source="5j7AbYeZaHDb51erD1fv-34" target="5j7AbYeZaHDb51erD1fv-18">
          <mxGeometry width="50" height="50" relative="1" as="geometry">
            <mxPoint x="430" y="770" as="sourcePoint" />
            <mxPoint x="480" y="720" as="targetPoint" />
          </mxGeometry>
        </mxCell>
        <mxCell id="5j7AbYeZaHDb51erD1fv-38" value="" style="endArrow=classic;html=1;rounded=0;exitX=0.635;exitY=-0.025;exitDx=0;exitDy=0;exitPerimeter=0;entryX=0.552;entryY=1.009;entryDx=0;entryDy=0;entryPerimeter=0;" edge="1" parent="1" source="5j7AbYeZaHDb51erD1fv-18" target="5j7AbYeZaHDb51erD1fv-34">
          <mxGeometry width="50" height="50" relative="1" as="geometry">
            <mxPoint x="640" y="820" as="sourcePoint" />
            <mxPoint x="690" y="770" as="targetPoint" />
          </mxGeometry>
        </mxCell>
        <mxCell id="5j7AbYeZaHDb51erD1fv-39" value="&lt;font style=&quot;font-size: 15px;&quot;&gt;localhost:8080&lt;/font&gt;" style="text;html=1;align=center;verticalAlign=middle;resizable=0;points=[];autosize=1;strokeColor=none;fillColor=none;" vertex="1" parent="1">
          <mxGeometry x="300" y="768" width="120" height="30" as="geometry" />
        </mxCell>
        <mxCell id="5j7AbYeZaHDb51erD1fv-43" value="&lt;font style=&quot;font-size: 15px;&quot;&gt;discovery&lt;br&gt;book-service&lt;br&gt;&lt;/font&gt;" style="text;html=1;align=center;verticalAlign=middle;resizable=0;points=[];autosize=1;strokeColor=none;fillColor=none;" vertex="1" parent="1">
          <mxGeometry x="588" y="758" width="110" height="50" as="geometry" />
        </mxCell>
        <mxCell id="5j7AbYeZaHDb51erD1fv-44" value="" style="endArrow=classic;html=1;rounded=0;exitX=0.5;exitY=1;exitDx=0;exitDy=0;entryX=0.519;entryY=-0.001;entryDx=0;entryDy=0;entryPerimeter=0;" edge="1" parent="1" source="5j7AbYeZaHDb51erD1fv-14" target="5j7AbYeZaHDb51erD1fv-34">
          <mxGeometry width="50" height="50" relative="1" as="geometry">
            <mxPoint x="640" y="390" as="sourcePoint" />
            <mxPoint x="640" y="528" as="targetPoint" />
            <Array as="points">
              <mxPoint x="638" y="440" />
              <mxPoint x="550" y="440" />
              <mxPoint x="550" y="490" />
            </Array>
          </mxGeometry>
        </mxCell>
        <mxCell id="5j7AbYeZaHDb51erD1fv-45" value="&lt;font style=&quot;font-size: 15px;&quot;&gt;registry&lt;br&gt;book-service&lt;br&gt;localhost&lt;br&gt;8080&lt;/font&gt;" style="text;html=1;align=center;verticalAlign=middle;resizable=0;points=[];autosize=1;strokeColor=none;fillColor=none;" vertex="1" parent="1">
          <mxGeometry x="640" y="380" width="110" height="90" as="geometry" />
        </mxCell>
      </root>
    </mxGraphModel>
  </diagram>
</mxfile>
